<mxfile host="app.diagrams.net" modified="2023-12-13T19:50:57.360Z" agent="Mozilla/5.0 (Windows NT 10.0; Win64; x64) AppleWebKit/537.36 (KHTML, like Gecko) Chrome/122.0.0.0 Safari/537.36" version="22.1.8" etag="wg3Z3fXYY5GfInq3QLtG" type="github">
  <diagram name="Page-1" id="-y7YOBXs5InRE4ekABNl">
    <mxGraphModel>
      <root>
        <mxCell id="0" />
        <mxCell id="1" parent="0" />
      </root>
    </mxGraphModel>
  </diagram>
</mxfile>
